<?xml version="1.0" standalone="no"?>
<!DOCTYPE svg PUBLIC "-//W3C//DTD SVG 20010904//EN"
 "http://www.w3.org/TR/2001/REC-SVG-20010904/DTD/svg10.dtd">
<svg version="1.0" xmlns="http://www.w3.org/2000/svg"
 width="1080.000000pt" height="1080.000000pt" viewBox="0 0 1080.000000 1080.000000"
 preserveAspectRatio="xMidYMid meet">

<g transform="translate(0.000000,1080.000000) scale(0.100000,-0.100000)"
fill="#000000" stroke="none">
<path d="M5419 7110 c-327 -52 -608 -223 -792 -481 l-46 -66 -63 9 c-86 13
-236 3 -333 -21 -44 -12 -122 -41 -172 -66 -522 -257 -666 -940 -290 -1381
139 -163 304 -261 519 -304 92 -19 141 -20 1265 -20 1132 0 1172 1 1247 20
231 59 422 243 503 485 23 70 27 96 27 210 1 148 -17 225 -82 350 -54 104
-191 239 -298 292 -45 22 -103 46 -131 53 l-49 13 -23 83 c-107 389 -453 712
-861 805 -97 23 -333 33 -421 19z m402 -198 c289 -76 541 -286 662 -551 16
-36 42 -114 57 -174 15 -60 35 -116 43 -124 8 -8 52 -24 97 -34 113 -26 192
-70 272 -150 163 -164 203 -407 102 -616 -45 -94 -152 -207 -235 -247 -121
-58 -65 -56 -1314 -56 -1226 1 -1228 1 -1357 50 -149 56 -307 200 -379 344
-51 104 -68 168 -76 286 -8 131 13 236 74 360 39 80 60 109 137 186 78 78 106
98 186 137 158 76 313 94 489 56 79 -17 98 -4 172 109 156 239 400 397 685
442 93 14 297 5 385 -18z"/>
<path d="M5260 4644 c-440 -38 -768 -150 -1081 -370 -374 -263 -607 -642 -651
-1057 -13 -130 -7 -175 29 -218 50 -58 116 -73 182 -40 59 31 72 59 86 195 14
130 18 149 45 241 111 369 468 703 915 854 574 194 1234 101 1686 -238 229
-172 391 -390 459 -616 27 -92 31 -111 45 -241 14 -136 27 -164 86 -195 66
-33 132 -18 182 40 36 43 42 88 29 216 -75 717 -709 1291 -1557 1410 -105 15
-374 26 -455 19z"/>
</g>
</svg>
