<?xml version="1.0" encoding="utf-8"?><!-- Uploaded to: SVG Repo, www.svgrepo.com, Generator: SVG Repo Mixer Tools -->
<svg width="800px" height="800px" viewBox="0 0 24 24" fill="none" xmlns="http://www.w3.org/2000/svg">
<path fill-rule="evenodd" clip-rule="evenodd" d="M20.2399 11.13C22.5715 11.6398 23.8975 13.5719 23.9387 15.5304C23.9621 16.6435 23.5704 17.778 22.7096 18.6344C21.8421 19.4974 20.5784 20 19 20L5.99998 20C2.02365 20 -0.0242426 16.479 0.251895 13.4332C0.393417 11.8721 1.13579 10.3317 2.5915 9.33656C3.90985 8.43533 5.69737 8.05913 7.9083 8.37933C8.83295 6.4967 10.0762 5.26023 11.4894 4.61875C13.059 3.90625 14.7191 3.98305 16.1474 4.55674C18.6351 5.55597 20.6366 8.19432 20.2399 11.13ZM12.3161 6.43991C11.3069 6.89799 10.2552 7.90321 9.45494 9.808C9.25032 10.295 8.72745 10.5665 8.2162 10.4625C6.04892 10.0217 4.61209 10.3779 3.72019 10.9876C2.82796 11.5976 2.33961 12.5561 2.24373 13.6137C2.04505 15.8052 3.49564 18 5.99998 18L19 18C20.1447 18 20.8687 17.6447 21.299 17.2166C21.736 16.7818 21.9522 16.192 21.9392 15.5724C21.9134 14.347 20.991 13.0534 19.1179 13.0016C18.3877 12.9815 17.8631 12.2597 18.0981 11.5493C18.7918 9.45185 17.4546 7.23709 15.402 6.41263C14.4136 6.01564 13.3264 5.9813 12.3161 6.43991Z" fill="#0F0F0F"/>
</svg>