<?xml version="1.0" standalone="no"?>
<!DOCTYPE svg PUBLIC "-//W3C//DTD SVG 20010904//EN"
 "http://www.w3.org/TR/2001/REC-SVG-20010904/DTD/svg10.dtd">
<svg version="1.0" xmlns="http://www.w3.org/2000/svg"
 width="512.000000pt" height="512.000000pt" viewBox="0 0 512.000000 512.000000"
 preserveAspectRatio="xMidYMid meet">

<g transform="translate(0.000000,512.000000) scale(0.100000,-0.100000)"
fill="#000000" stroke="none">
<path d="M2475 4695 c-101 -38 -165 -132 -165 -244 1 -108 52 -189 150 -234
55 -26 148 -27 203 -3 57 25 112 80 137 138 52 121 -8 277 -128 334 -49 23
-147 27 -197 9z"/>
<path d="M1175 4151 c-57 -16 -84 -30 -126 -68 -56 -50 -82 -110 -81 -187 0
-100 43 -172 131 -224 39 -23 57 -27 121 -27 115 1 189 48 238 154 70 153 -36
334 -208 354 -25 3 -58 2 -75 -2z"/>
<path d="M3855 4151 c-83 -21 -161 -85 -191 -157 -8 -18 -14 -64 -14 -101 0
-55 6 -78 28 -118 50 -92 146 -142 249 -132 255 26 321 366 94 482 -53 26
-122 37 -166 26z"/>
<path d="M2351 3775 c-235 -42 -459 -156 -633 -323 -270 -259 -400 -579 -385
-946 14 -332 143 -618 383 -846 312 -297 752 -407 1174 -295 131 35 333 136
437 220 410 329 572 870 408 1361 -135 406 -480 720 -895 815 -115 27 -373 34
-489 14z"/>
<path d="M554 2786 c-238 -111 -158 -485 105 -486 78 0 127 18 181 67 77 69
104 177 71 277 -17 51 -85 124 -136 147 -59 27 -157 25 -221 -5z"/>
<path d="M4342 2784 c-195 -97 -181 -384 23 -470 45 -18 131 -18 186 1 52 19
112 74 142 130 33 63 30 165 -8 234 -49 89 -122 131 -228 131 -48 0 -76 -6
-115 -26z"/>
<path d="M1175 1471 c-84 -21 -161 -85 -192 -160 -20 -46 -20 -146 0 -192 23
-56 82 -114 139 -139 70 -30 166 -25 231 13 173 102 166 361 -12 452 -53 26
-122 37 -166 26z"/>
<path d="M3855 1471 c-129 -35 -205 -130 -205 -259 0 -73 15 -114 61 -167 76
-86 208 -111 310 -57 185 96 185 363 0 457 -53 27 -122 37 -166 26z"/>
<path d="M2475 905 c-144 -53 -209 -228 -137 -366 63 -121 220 -171 342 -109
49 25 103 87 125 144 45 116 -18 267 -133 322 -49 23 -147 27 -197 9z"/>
</g>
</svg>
